<svg xmlns="http://www.w3.org/2000/svg" viewBox="0 0 227.78 227.78"><defs><style>.cls-1{isolation:isolate;}.cls-2,.cls-3{fill:#0d60a9;}.cls-3{opacity:0.25;mix-blend-mode:multiply;}.cls-4{fill:#fff;}.cls-5{fill:#e5e5e5;}.cls-6{fill:#3a3a3a;}.cls-7{fill:#d1d1d1;}.cls-8{fill:#cbcbcb;}</style></defs><title>Asset 43</title><g class="cls-1"><g id="Layer_2" data-name="Layer 2"><g id="Layer_1-2" data-name="Layer 1"><circle class="cls-2" cx="113.89" cy="113.89" r="113.89" transform="translate(-23.12 198.57) rotate(-76.72)"/><path class="cls-3" d="M227.46,122.35l-48-48-.08-.1a.15.15,0,0,0-.07,0,4.24,4.24,0,0,0-3-1.22H137.09l-9.62-9.63-.07-.07a15.21,15.21,0,0,0-2.16-2.16l-.06-.06c-.34-.28-.69-.53-1.06-.78l-.16-.1c-.32-.21-.65-.41-1-.59s-.39-.2-.58-.3l-.64-.31-.66-.27-.65-.24-.68-.21-.71-.18-.64-.15-.88-.13-.53-.07c-.48,0-1-.07-1.46-.07A15.31,15.31,0,0,0,100.23,73H54.78a4.34,4.34,0,0,0-4.34,4.34v76.85a4.33,4.33,0,0,0,1.16,3l.11.12a.28.28,0,0,0,.09.07l70.34,70.36A112.12,112.12,0,0,0,227.46,122.35Z"/><path class="cls-4" d="M180.65,88.3H50.44v65.87a4.34,4.34,0,0,0,4.34,4.34H176.31a4.34,4.34,0,0,0,4.34-4.34Z"/><path class="cls-5" d="M180.65,77.32A4.32,4.32,0,0,0,176.31,73H54.78a4.32,4.32,0,0,0-4.34,4.33v11H180.65Z"/><rect class="cls-6" x="83.63" y="72.99" width="63.83" height="15.32"/><path class="cls-6" d="M115.55,57.66A15.32,15.32,0,1,0,130.86,73,15.32,15.32,0,0,0,115.55,57.66Zm0,21.11A5.79,5.79,0,1,1,121.33,73,5.78,5.78,0,0,1,115.55,78.77Z"/><rect class="cls-7" x="60.65" y="98.52" width="49.79" height="49.78"/><polygon class="cls-6" points="94.04 114.24 77.04 114.24 75.89 138.95 95.2 138.95 94.04 114.24"/><path class="cls-4" d="M104.27,142.79a6.16,6.16,0,0,0-1.36-2.35,6.34,6.34,0,0,0-2.23-1.54l-8.78-3.48a2.53,2.53,0,0,1-1.13-.9,2.48,2.48,0,0,1-.42-1.38v-4.28h-9.6v4.28a2.57,2.57,0,0,1-.43,1.38,2.47,2.47,0,0,1-1.13.9l-8.77,3.48a6.26,6.26,0,0,0-2.23,1.54,6.06,6.06,0,0,0-1.37,2.35l-1.74,5.51H106Z"/><path class="cls-6" d="M73.68,142.2a19.63,19.63,0,0,1-.93,6.1h25.6a19.91,19.91,0,0,1-.44-10.48l-2.35-.94-1,4.06A9.07,9.07,0,0,1,91.26,146a9.55,9.55,0,0,1-11.43,0,9.12,9.12,0,0,1-3.28-5.08l-1-4.06-2.34.94A18.83,18.83,0,0,1,73.68,142.2Z"/><path class="cls-4" d="M85.55,107.12c-5.26,0-9,3.83-9,11.93,0,6.86,4,12.66,9,12.66s9-5.8,9-12.66C94.54,111,90.8,107.12,85.55,107.12Z"/><path class="cls-6" d="M93.62,107.56H77.47s-1.14,8.06.32,9.7c.07-.66.65-.85,1.72-.86a8.86,8.86,0,0,0,1.55-3.77,12.07,12.07,0,0,1,.27,3.85c1.15.08,2.56.21,4.22.21l1.21,0a1.89,1.89,0,0,0,.7-1,2,2,0,0,1,.35,1c3.45-.18,5.37-.59,5.48.65C94.77,115.62,93.62,107.56,93.62,107.56Z"/><path class="cls-6" d="M79.19,135.42a2.47,2.47,0,0,0,1.13-.9,2.57,2.57,0,0,0,.43-1.38v-1.83H78a55.17,55.17,0,0,1-.55-7.44c0-7,.49-9.68,2.44-12.06a10.87,10.87,0,0,1,5.62-3.7,10.91,10.91,0,0,1,5.62,3.7c1.94,2.38,2.42,5,2.42,12.06a55.12,55.12,0,0,1-.54,7.44h-2.7v1.83a2.48,2.48,0,0,0,.42,1.38,2.53,2.53,0,0,0,1.13.9l5,2a4.22,4.22,0,0,0,.93-2.65v-3.47c0-5.83-.17-13.44-1.41-19-1.07-4.76-5.14-9.36-10.9-8.11-5.76-1.25-9.83,3.35-10.91,8.11-1.24,5.56-1.41,13.17-1.41,19v3.47a4.17,4.17,0,0,0,.94,2.65Z"/><rect class="cls-8" x="120.65" y="144.47" width="24.9" height="3.83"/><rect class="cls-8" x="120.65" y="136.81" width="49.79" height="3.83"/><rect class="cls-8" x="120.65" y="129.15" width="49.79" height="3.83"/><rect class="cls-8" x="120.65" y="121.49" width="49.79" height="3.84"/><rect class="cls-6" x="120.65" y="98.52" width="49.79" height="11.49"/></g></g></g></svg>