<svg xmlns="http://www.w3.org/2000/svg" viewBox="0 0 227.78 227.77"><defs><style>.cls-1{isolation:isolate;}.cls-2,.cls-3{fill:#0d60a9;}.cls-3{opacity:0.25;mix-blend-mode:multiply;}.cls-4{fill:#a5a5a5;}.cls-5{fill:#8b8b8b;}.cls-6{fill:#797979;}.cls-7{fill:#fff;}.cls-8{fill:#e5e5e5;}.cls-9{fill:#3a3a3a;}.cls-10{fill:#4f4f4f;}.cls-11{fill:#cbcbcb;}</style></defs><title>Asset 41</title><g class="cls-1"><g id="Layer_2" data-name="Layer 2"><g id="Layer_1-2" data-name="Layer 1"><path class="cls-2" d="M227.78,113.89A113.89,113.89,0,1,1,113.89,0,113.88,113.88,0,0,1,227.78,113.89Z"/><path class="cls-3" d="M227.28,124.38l-69-69a4.19,4.19,0,0,0-3-1.24H125.82l-5.91-5.9a.68.68,0,0,0-.12-.12,8.11,8.11,0,0,0-1.88-1.39h0c-.23-.12-.46-.23-.7-.33l0,0c-.23-.1-.46-.18-.69-.26a.16.16,0,0,1-.09,0l-.68-.17-.13,0c-.22-.05-.45-.08-.68-.11l-.15,0a8.12,8.12,0,0,0-.86,0,8.42,8.42,0,0,0-8.43,8.43h-33a4.23,4.23,0,0,0-4.22,4.22v111a4.17,4.17,0,0,0,1.24,3l54.91,54.92A113.91,113.91,0,0,0,227.28,124.38Z"/><rect class="cls-4" x="165.91" y="86.83" width="4.23" height="75.18"/><rect class="cls-5" x="170.14" y="86.83" width="4.24" height="75.18"/><rect class="cls-6" x="174.38" y="86.83" width="4.24" height="75.18"/><polygon class="cls-7" points="178.62 86.83 174.37 79.49 170.15 79.48 165.91 86.83 178.62 86.83"/><polygon class="cls-8" points="178.62 86.83 174.38 86.83 172.97 79.48 174.37 79.49 178.62 86.83"/><polygon class="cls-9" points="174.37 79.49 172.26 75.82 170.15 79.48 174.37 79.49"/><rect class="cls-8" x="174.38" y="162.02" width="4.23" height="4.24"/><rect class="cls-7" x="165.91" y="162.02" width="8.47" height="4.24"/><path class="cls-9" d="M178.61,167.24v-1h-4.24v1a6.37,6.37,0,0,1-1.85,4.5,6.45,6.45,0,0,1-2.38,1.49,6.33,6.33,0,0,0,8.47-6Z"/><path class="cls-10" d="M174.37,167.24v-1H165.9v1a6.38,6.38,0,0,0,1.86,4.5,6.5,6.5,0,0,0,2.38,1.49,6.45,6.45,0,0,0,2.38-1.49A6.37,6.37,0,0,0,174.37,167.24Z"/><path class="cls-9" d="M72.45,54.18a4.22,4.22,0,0,0-4.22,4.21v111a4.23,4.23,0,0,0,4.22,4.22h82.88a4.23,4.23,0,0,0,4.22-4.22v-111a4.22,4.22,0,0,0-4.22-4.21Z"/><rect class="cls-7" x="78.06" y="54.18" width="71.65" height="109.58"/><rect class="cls-11" x="85.58" y="123.09" width="56.62" height="4.72"/><rect class="cls-11" x="85.58" y="132.54" width="56.62" height="4.73"/><rect class="cls-11" x="85.58" y="141.99" width="28.31" height="4.73"/><rect class="cls-9" x="98.39" y="75.82" width="30.99" height="4.72"/><polygon class="cls-5" points="88.92 115.6 85.58 112.26 100.39 97.44 106.97 104.02 120.12 90.87 126.69 97.44 138.17 85.97 141.51 89.3 126.69 104.13 120.12 97.55 106.97 110.7 100.39 104.13 88.92 115.6"/><polygon class="cls-5" points="142.2 96.56 137.48 96.56 137.48 90 130.91 90 130.91 85.27 142.2 85.27 142.2 96.56"/><path class="cls-9" d="M122.32,54.18a8.43,8.43,0,1,0-16.86,0h-7V64h30.9V54.18Zm-12,0a3.61,3.61,0,1,1,7.22,0Z"/></g></g></g></svg>