<svg xmlns="http://www.w3.org/2000/svg" viewBox="0 0 227.78 227.78"><defs><style>.cls-1{isolation:isolate;}.cls-2,.cls-3{fill:#0d60a9;}.cls-3{opacity:0.25;mix-blend-mode:multiply;}.cls-4{fill:#3a3a3a;}.cls-5{fill:#fff;}.cls-6{fill:#d8d8d8;}.cls-7{fill:#8b8b8b;}</style></defs><title>Asset 44</title><g class="cls-1"><g id="Layer_2" data-name="Layer 2"><g id="Layer_1-2" data-name="Layer 1"><circle class="cls-2" cx="113.89" cy="113.89" r="113.89" transform="translate(-47.18 113.89) rotate(-45)"/><path class="cls-3" d="M164.86,64.09,152.2,51.44H93.57a3.36,3.36,0,0,0-2.44,1,3.43,3.43,0,0,0-1,2.44v4.2l-7.66-7.65H73.64A10.72,10.72,0,0,0,62.93,62.15v4.41H60.41L72.48,78.62h-6.1a3.4,3.4,0,0,0-2.44,1,3.45,3.45,0,0,0-1,2.44v90.83a3.45,3.45,0,0,0,1,2.44l52.39,52.39A113.88,113.88,0,0,0,227.1,126.33Z"/><path class="cls-4" d="M137.67,91.26V172.9a3.45,3.45,0,0,1-3.45,3.45H66.38a3.45,3.45,0,0,1-3.45-3.45V82.06a3.45,3.45,0,0,1,3.45-3.44H125Z"/><path class="cls-5" d="M164.85,64.08v81.64a3.4,3.4,0,0,1-1,2.44,3.44,3.44,0,0,1-2.44,1H93.56a3.45,3.45,0,0,1-3.45-3.45V54.88a3.45,3.45,0,0,1,3.45-3.44H152.2Z"/><path class="cls-6" d="M164.85,64.08h-9.2a3.47,3.47,0,0,1-3.45-3.44v-9.2Z"/><rect class="cls-4" x="102.76" y="79.56" width="49.45" height="3.87"/><rect class="cls-4" x="102.76" y="87.29" width="49.45" height="3.87"/><rect class="cls-7" x="102.76" y="64.08" width="24.73" height="3.87"/><rect class="cls-4" x="102.76" y="71.82" width="49.45" height="3.87"/><rect class="cls-4" x="102.76" y="133.71" width="49.45" height="3.87"/><rect class="cls-4" x="102.76" y="125.98" width="49.45" height="3.87"/><rect class="cls-4" x="102.76" y="118.24" width="49.45" height="3.87"/><rect class="cls-4" x="102.76" y="110.5" width="49.45" height="3.87"/><rect class="cls-4" x="102.76" y="102.76" width="49.45" height="3.87"/><rect class="cls-4" x="102.76" y="95.03" width="49.45" height="3.87"/><path class="cls-5" d="M66.71,66.55H62.93V62.14a10.7,10.7,0,0,1,10.71-10.7h8.82v3.77H73.64a6.93,6.93,0,0,0-6.93,6.93Z"/><polygon class="cls-5" points="60.41 66.55 64.82 70.96 69.23 66.55 60.41 66.55"/><path class="cls-5" d="M161.07,161.23h3.78v4.41a10.7,10.7,0,0,1-10.71,10.71h-8.81v-3.78h8.81a6.91,6.91,0,0,0,6.93-6.93Z"/><polygon class="cls-5" points="167.37 161.23 162.97 156.82 158.56 161.23 167.37 161.23"/></g></g></g></svg>