<svg xmlns="http://www.w3.org/2000/svg" viewBox="0 0 227.78 227.78"><defs><style>.cls-1{isolation:isolate;}.cls-2,.cls-3{fill:#0d60a9;}.cls-3{opacity:0.25;mix-blend-mode:multiply;}.cls-4{fill:#fff;}.cls-5{fill:#3a3a3a;}.cls-6{fill:#d8d8d8;}.cls-7{fill:#d1d1d1;}.cls-8{fill:#8b8b8b;}</style></defs><title>Asset 37</title><g class="cls-1"><g id="Layer_2" data-name="Layer 2"><g id="Layer_1-2" data-name="Layer 1"><circle class="cls-2" cx="113.89" cy="113.89" r="113.89" transform="translate(-23.12 198.57) rotate(-76.72)"/><path class="cls-3" d="M227.75,115.37l-52.05-52a2.15,2.15,0,0,0-1.55-.65H53.64a2.17,2.17,0,0,0-1.56.65,2.22,2.22,0,0,0-.65,1.56V71a2.22,2.22,0,0,0,.65,1.56l3,3V154H53.64a2.21,2.21,0,0,0-1.56.65,2.27,2.27,0,0,0-.65,1.55v.55a2.26,2.26,0,0,0,.65,1.56l69.2,69.19A113.85,113.85,0,0,0,227.75,115.37Z"/><rect class="cls-4" x="55.11" y="73.19" width="117.57" height="80.83"/><rect class="cls-4" x="111.42" y="158.96" width="4.95" height="9.46"/><path class="cls-5" d="M113.89,182.26a8.17,8.17,0,1,1,8.17-8.16A8.18,8.18,0,0,1,113.89,182.26Zm0-11.38a3.22,3.22,0,1,0,3.22,3.22A3.23,3.23,0,0,0,113.89,170.88Z"/><path class="cls-5" d="M53.64,62.69a2.2,2.2,0,0,0-2.21,2.2V71a2.17,2.17,0,0,0,.65,1.55,2.21,2.21,0,0,0,1.56.65H174.15a2.22,2.22,0,0,0,2.2-2.2v-6.1a2.2,2.2,0,0,0-2.2-2.2Z"/><path class="cls-5" d="M176.35,156.22a2.23,2.23,0,0,0-.65-1.56,2.18,2.18,0,0,0-1.55-.64H53.64a2.2,2.2,0,0,0-1.56.64,2.23,2.23,0,0,0-.65,1.56v.53a2.18,2.18,0,0,0,.65,1.56,2.21,2.21,0,0,0,1.56.65H174.15a2.22,2.22,0,0,0,2.2-2.21Z"/><path class="cls-6" d="M108.47,113.6a16.22,16.22,0,0,1-4.77,11.52l8.23,8.23a27.83,27.83,0,0,0,8.18-19.75Z"/><path class="cls-5" d="M103.7,125.13A16.29,16.29,0,1,1,86,98.56L81.51,87.81a27.92,27.92,0,1,0,30.42,45.55Z"/><path class="cls-7" d="M92.18,97.32V85.68a27.64,27.64,0,0,0-10.67,2.13L86,98.56A16.33,16.33,0,0,1,92.18,97.32Z"/><path class="cls-8" d="M92.18,97.32a16.28,16.28,0,0,1,16.29,16.28h11.64A27.92,27.92,0,0,0,92.18,85.68V97.32Z"/><rect class="cls-5" x="128.91" y="85.68" width="4.95" height="4.94"/><rect class="cls-8" x="138.81" y="85.68" width="4.94" height="4.94"/><rect class="cls-6" x="148.69" y="85.68" width="4.94" height="4.94"/><rect class="cls-7" x="158.57" y="85.68" width="4.94" height="4.94"/><rect class="cls-6" x="128.91" y="136.58" width="34.6" height="4.94"/><rect class="cls-6" x="128.91" y="126.69" width="34.6" height="4.94"/><rect class="cls-6" x="128.91" y="116.81" width="34.6" height="4.94"/><rect class="cls-6" x="128.91" y="106.92" width="34.6" height="4.94"/></g></g></g></svg>