<svg xmlns="http://www.w3.org/2000/svg" viewBox="0 0 227.78 227.78"><defs><style>.cls-1{isolation:isolate;}.cls-2,.cls-3{fill:#0d60a9;}.cls-3{opacity:0.25;mix-blend-mode:multiply;}.cls-4{fill:#3a3a3a;}.cls-5{fill:#4f4f4f;}.cls-6{fill:#fff;}</style></defs><title>Asset 46</title><g class="cls-1"><g id="Layer_2" data-name="Layer 2"><g id="Layer_1-2" data-name="Layer 1"><circle class="cls-2" cx="113.89" cy="113.89" r="113.89" transform="translate(-23.12 198.57) rotate(-76.72)"/><path class="cls-3" d="M227.33,123.74,175.05,71.47a4.33,4.33,0,0,0-3.11-1.3h-5.75l-2.5-2.49h-15.6v2.49h-3.28l-12-12a9,9,0,0,0-6.41-2.66h-25a9.06,9.06,0,0,0-9.06,9.07v5.61H82.19l-2.5-2.49H64.09v2.49H55.84a4.42,4.42,0,0,0-4.41,4.41V153.2a4.36,4.36,0,0,0,1.29,3.12l71,71A113.86,113.86,0,0,0,227.33,123.74Z"/><path class="cls-4" d="M176.35,153.2a4.42,4.42,0,0,1-4.41,4.42H55.84a4.42,4.42,0,0,1-4.41-4.42V88.91H176.35Z"/><path class="cls-5" d="M176.35,88.91a25,25,0,0,1-25,25H76.42a25,25,0,0,1-25-25V74.58a4.42,4.42,0,0,1,4.41-4.41h116.1a4.42,4.42,0,0,1,4.41,4.41Z"/><path class="cls-4" d="M135.44,70.17h-5.62V64.55a3.45,3.45,0,0,0-3.44-3.43h-25A3.45,3.45,0,0,0,98,64.55v5.62H92.34V64.55a9,9,0,0,1,9.06-9h25a9,9,0,0,1,9.06,9Z"/><rect class="cls-4" x="64.08" y="67.68" width="15.61" height="2.5"/><rect class="cls-4" x="148.08" y="67.68" width="15.62" height="2.5"/><rect class="cls-6" x="107.02" y="105.47" width="13.74" height="16.86"/><rect class="cls-4" x="107.02" y="70.17" width="13.74" height="35.29"/><rect class="cls-5" x="107.02" y="122.33" width="13.74" height="35.29"/></g></g></g></svg>