<svg xmlns="http://www.w3.org/2000/svg" viewBox="0 0 227.78 227.78"><defs><style>.cls-1{isolation:isolate;}.cls-2,.cls-3{fill:#0d60a9;}.cls-3{opacity:0.25;}.cls-3,.cls-9{mix-blend-mode:multiply;}.cls-4{fill:#3a3a3a;}.cls-5{fill:#fff;}.cls-6{fill:#242424;}.cls-7,.cls-9{fill:#cbcbcb;}.cls-8{fill:#8b8b8b;}</style></defs><title>Asset 34</title><g class="cls-1"><g id="Layer_2" data-name="Layer 2"><g id="Layer_1-2" data-name="Layer 1"><circle class="cls-2" cx="113.89" cy="113.89" r="113.89" transform="translate(-47.17 113.89) rotate(-45)"/><path class="cls-3" d="M227.78,113.89c0-1.19-.05-2.38-.09-3.56L182.11,64.74l-.16-.16a3.12,3.12,0,0,0-2.15-.85H154a3.11,3.11,0,0,0-2.22.93,3.16,3.16,0,0,0-.93,2.24,3.19,3.19,0,0,0-.92-2.24,3.16,3.16,0,0,0-2.24-.93H122a3.06,3.06,0,0,0-2.21.93,3.1,3.1,0,0,0-1,2.24v7.59a2.65,2.65,0,0,0-.22-.88,3.2,3.2,0,0,0-1.67-1.74L93.27,61.68a3.15,3.15,0,0,0-2.43,0,3.18,3.18,0,0,0-1.73,1.69L51,151.74a3.12,3.12,0,0,0,.65,3.47l72.12,72.12A113.88,113.88,0,0,0,227.78,113.89Z"/><path class="cls-4" d="M150.89,66.9a3.15,3.15,0,0,1,.92-2.24,3.18,3.18,0,0,1,2.23-.92H179.8A3.16,3.16,0,0,1,183,66.9v96.31a3.16,3.16,0,0,1-3.16,3.15H154a3.14,3.14,0,0,1-3.15-3.15Z"/><path class="cls-5" d="M157.63,149.05a9.3,9.3,0,1,0,9.3-9.31A9.28,9.28,0,0,0,157.63,149.05Z"/><path class="cls-6" d="M160,149.05a7,7,0,1,0,7-7A7,7,0,0,0,160,149.05Z"/><rect class="cls-5" x="156.34" y="69.19" width="21.16" height="62.53"/><rect class="cls-7" x="159.87" y="72.71" width="14.11" height="14.12"/><rect class="cls-7" x="159.87" y="121.14" width="14.11" height="7.06"/><rect class="cls-7" x="159.93" y="101.12" width="14.05" height="2.04"/><rect class="cls-7" x="159.93" y="105.19" width="14.05" height="2.05"/><rect class="cls-7" x="159.93" y="97.03" width="14.05" height="2.05"/><rect class="cls-7" x="159.93" y="92.96" width="14.05" height="2.03"/><rect class="cls-7" x="159.93" y="88.87" width="14.05" height="2.05"/><path class="cls-8" d="M118.82,66.9A3.16,3.16,0,0,1,122,63.74h25.75a3.16,3.16,0,0,1,3.16,3.16v96.31a3.16,3.16,0,0,1-3.16,3.15H122a3.11,3.11,0,0,1-2.23-.92,3.15,3.15,0,0,1-.93-2.23Z"/><path class="cls-5" d="M125.55,149.05a9.3,9.3,0,1,0,9.3-9.31A9.29,9.29,0,0,0,125.55,149.05Z"/><path class="cls-6" d="M127.88,149.05a7,7,0,1,0,7-7A7,7,0,0,0,127.88,149.05Z"/><rect class="cls-5" x="124.27" y="69.19" width="21.17" height="62.53"/><rect class="cls-7" x="127.8" y="72.71" width="14.11" height="14.12"/><rect class="cls-7" x="127.8" y="121.14" width="14.11" height="7.06"/><rect class="cls-7" x="127.86" y="101.12" width="14.05" height="2.04"/><rect class="cls-7" x="127.86" y="105.19" width="14.05" height="2.05"/><rect class="cls-7" x="127.86" y="97.03" width="14.05" height="2.05"/><rect class="cls-7" x="127.86" y="92.96" width="14.05" height="2.03"/><rect class="cls-7" x="127.86" y="88.87" width="14.05" height="2.05"/><path class="cls-4" d="M89.11,63.33a3.17,3.17,0,0,1,1.74-1.69,3.12,3.12,0,0,1,2.42,0l23.65,10.2a3.22,3.22,0,0,1,1.68,1.74,3.17,3.17,0,0,1,0,2.42L80.4,164.46a3.16,3.16,0,0,1-4.14,1.65L52.61,155.9a3.07,3.07,0,0,1-1.68-1.73,3.12,3.12,0,0,1,0-2.42Z"/><path class="cls-5" d="M62.75,141.42A9.3,9.3,0,1,0,75,136.57,9.31,9.31,0,0,0,62.75,141.42Z"/><path class="cls-6" d="M64.89,142.34a7,7,0,1,0,9.17-3.64A7,7,0,0,0,64.89,142.34Z"/><rect class="cls-5" x="59.27" y="89.9" width="62.54" height="21.17" transform="translate(-37.59 143.82) rotate(-66.66)"/><rect class="cls-7" x="91.68" y="74.44" width="14.11" height="14.11" transform="translate(-15.21 139.86) rotate(-66.66)"/><polygon class="cls-7" points="86.03 128.75 88.82 122.28 75.87 116.69 73.07 123.17 86.03 128.75"/><polygon class="cls-7" points="83.85 98.32 96.76 103.89 95.95 105.77 83.04 100.2 83.85 98.32"/><polygon class="cls-7" points="82.23 102.06 95.14 107.64 94.34 109.51 81.43 103.94 82.23 102.06"/><rect class="cls-7" x="90.49" y="91.27" width="2.04" height="14.06" transform="translate(-34.97 143.43) rotate(-66.68)"/><rect class="cls-7" x="92.11" y="87.52" width="2.05" height="14.05" transform="translate(-30.55 142.65) rotate(-66.68)"/><polygon class="cls-7" points="88.7 87.08 101.6 92.65 100.8 94.52 87.9 88.95 88.7 87.08"/><path class="cls-9" d="M183,137.61v25.6a3.18,3.18,0,0,1-3.16,3.16H154a3.18,3.18,0,0,1-3.15-3.16,3.16,3.16,0,0,1-3.16,3.16H122a3.21,3.21,0,0,1-3.16-3.16V75.11a3.21,3.21,0,0,0,0-.62v-1l32.08,32.06Z"/></g></g></g></svg>