<svg xmlns="http://www.w3.org/2000/svg" viewBox="0 0 227.78 227.77"><defs><style>.cls-1{isolation:isolate;}.cls-2,.cls-3{fill:#0d60a9;}.cls-3{opacity:0.25;mix-blend-mode:multiply;}.cls-4{fill:#3a3a3a;}.cls-5{fill:#fff;}.cls-6{fill:#d8d8d8;}.cls-7{fill:#a5a5a5;}.cls-8{fill:#797979;}</style></defs><title>Asset 40</title><g class="cls-1"><g id="Layer_2" data-name="Layer 2"><g id="Layer_1-2" data-name="Layer 1"><path class="cls-2" d="M227.78,113.89A113.89,113.89,0,1,1,113.89,0,113.88,113.88,0,0,1,227.78,113.89Z"/><path class="cls-3" d="M159.3,71l-2.55-2.54a62.44,62.44,0,0,0-87,89.56l67.35,67.36a114,114,0,0,0,88.32-88.28Z"/><path class="cls-4" d="M176.34,113.89a62.46,62.46,0,1,1-62.45-62.46A62.45,62.45,0,0,1,176.34,113.89Z"/><path class="cls-5" d="M179.32,113.89a7.14,7.14,0,0,0-7.13-7.14H154.34V121h17.85a7.12,7.12,0,0,0,7.13-7.13Z"/><path class="cls-6" d="M156.12,106.75V121H161a45.73,45.73,0,0,0,0-14.27Z"/><path class="cls-5" d="M156.72,113.89a42.83,42.83,0,1,1-42.83-42.83A42.83,42.83,0,0,1,156.72,113.89Z"/><path class="cls-7" d="M147.6,113.89a33.72,33.72,0,1,1-33.71-33.72A33.71,33.71,0,0,1,147.6,113.89Z"/><path class="cls-8" d="M91.33,113.89a33.7,33.7,0,0,1,28.13-33.22,33.7,33.7,0,1,0-5.57,66.93,33,33,0,0,0,5.57-.5A33.69,33.69,0,0,1,91.33,113.89Z"/></g></g></g></svg>