<svg xmlns="http://www.w3.org/2000/svg" viewBox="0 0 227.78 227.78"><defs><style>.cls-1{isolation:isolate;}.cls-2,.cls-3{fill:#0d60a9;}.cls-3{opacity:0.25;mix-blend-mode:multiply;}.cls-4{fill:#fff;}.cls-5{fill:#cbcbcb;}</style></defs><title>Asset 47</title><g class="cls-1"><g id="Layer_2" data-name="Layer 2"><g id="Layer_1-2" data-name="Layer 1"><circle class="cls-2" cx="113.89" cy="113.89" r="113.89" transform="translate(-47.18 113.89) rotate(-45)"/><path class="cls-3" d="M221.91,150l-53.52-53.5a4.41,4.41,0,0,0-.48-.49,3.54,3.54,0,0,0-2.26-.81h-3.57L117,50.13a4.39,4.39,0,0,0-6.24,0l-45,45.05H62.15a3.58,3.58,0,0,0-3.57,3.57,3.74,3.74,0,0,0,.06.68c0,.06,0,.1,0,.16a2.81,2.81,0,0,0,.16.49.84.84,0,0,0,.06.14,3.29,3.29,0,0,0,.26.49l.05.07s0,.09.08.14l.16.15a3.59,3.59,0,0,0,.39.39l5.88,5.88v39.71H61.78a3.58,3.58,0,0,0-3.2,3.55v3.57H55a3.59,3.59,0,0,0-3.58,3.57v3.57l66.37,66.38A113.92,113.92,0,0,0,221.91,150Z"/><rect class="cls-4" x="65.71" y="102.33" width="10.71" height="44.72"/><rect class="cls-5" x="69.28" y="105.9" width="3.57" height="37.57"/><rect class="cls-4" x="87.13" y="102.33" width="10.7" height="44.72"/><rect class="cls-5" x="90.69" y="105.9" width="3.57" height="37.57"/><rect class="cls-4" x="151.37" y="102.33" width="10.71" height="44.72"/><rect class="cls-5" x="154.94" y="105.9" width="3.57" height="37.57"/><rect class="cls-4" x="129.95" y="102.33" width="10.71" height="44.72"/><rect class="cls-5" x="133.52" y="105.9" width="3.57" height="37.57"/><rect class="cls-4" x="108.54" y="102.33" width="10.71" height="44.72"/><rect class="cls-5" x="112.1" y="105.9" width="3.57" height="37.57"/><path class="cls-5" d="M169.2,150.61v3.57H58.58v-3.57a3.58,3.58,0,0,1,3.2-3.56H166A3.56,3.56,0,0,1,169.2,150.61Z"/><path class="cls-4" d="M176.35,157.74v3.58H51.43v-3.58A3.58,3.58,0,0,1,55,154.18H172.79A3.56,3.56,0,0,1,176.35,157.74Z"/><path class="cls-5" d="M169.2,98.75a3.56,3.56,0,0,1-3.55,3.58H62.15a3.58,3.58,0,0,1,0-7.15h103.5A3.56,3.56,0,0,1,169.2,98.75Z"/><path class="cls-4" d="M117,50.12a4.42,4.42,0,0,0-6.24,0L65.71,95.18h96.36Z"/><polygon class="cls-5" points="113.89 57.1 144.84 88.05 82.94 88.05 113.89 57.1"/><path class="cls-4" d="M113.89,83.3A7.14,7.14,0,1,1,121,76.16,7.16,7.16,0,0,1,113.89,83.3Zm0-10.71a3.57,3.57,0,1,0,3.57,3.57A3.57,3.57,0,0,0,113.89,72.59Z"/></g></g></g></svg>