<svg xmlns="http://www.w3.org/2000/svg" viewBox="0 0 227.78 227.78"><defs><style>.cls-1{isolation:isolate;}.cls-2,.cls-3{fill:#0d60a9;}.cls-3{opacity:0.25;mix-blend-mode:multiply;}.cls-4{fill:#fff;}.cls-5{fill:#3a3a3a;}.cls-6{fill:#8b8b8b;}</style></defs><title>Asset 45</title><g class="cls-1"><g id="Layer_2" data-name="Layer 2"><g id="Layer_1-2" data-name="Layer 1"><circle class="cls-2" cx="113.89" cy="113.89" r="113.89" transform="translate(-23.12 198.57) rotate(-76.72)"/><path class="cls-3" d="M224.09,142.72l-94-94-.93-.93a4.15,4.15,0,0,0-2.52-.84,4.24,4.24,0,0,0-4,2.78v0l-1.24-1.21a1.14,1.14,0,0,0-.19-.19l-.19-.19a1.8,1.8,0,0,0-.19-.2,2,2,0,0,0-.24-.16l-.18-.13a5.19,5.19,0,0,0-.47-.25l-.25-.12a4,4,0,0,0-.49-.15,1.34,1.34,0,0,0-.27-.07,3.57,3.57,0,0,0-.8-.09,4.23,4.23,0,0,0-4,2.82h0L113,48.55a4.69,4.69,0,0,0-.71-.7l-.07-.08-.07,0-.31-.19-.34-.19-.32-.14-.44-.13-.28-.08a4.15,4.15,0,0,0-.79-.08,4.25,4.25,0,0,0-4,2.77h0l-1.24-1.21a1.67,1.67,0,0,0-.23-.23,1.36,1.36,0,0,0-.12-.12l-.22-.23-.28-.19-.12-.09a5.36,5.36,0,0,0-.53-.28l-.2-.09a4.43,4.43,0,0,0-.55-.18L102,47a3.72,3.72,0,0,0-.81-.09,4.25,4.25,0,0,0-4.26,4.25,3.24,3.24,0,0,0,0,.44c0,.08,0,.16,0,.23,0,1,0,2,.13,2.94,0,.2.05.4.07.6.08.84.17,1.68.29,2.51,0,.28.12.55.16.83.14.72.26,1.45.42,2.14.08.34.18.66.26,1,.17.63.33,1.25.52,1.86.11.36.25.69.38,1,.19.54.37,1.09.58,1.6s.34.74.51,1.11.4.92.63,1.35.47.82.71,1.23.38.69.59,1a23,23,0,0,0,1.44,2,2.35,2.35,0,0,0,.62,4.61h.07a44.14,44.14,0,0,0-21.86,12c-.75.75-1.46,1.51-2.14,2.3l-.42.49a44.71,44.71,0,0,0-3.66,5l-.27.44a44.64,44.64,0,0,0-2.61,4.92l-.27.62c-.23.54-.46,1.09-.67,1.65,0,.11-.1.21-.13.32s-.11.31-.17.46c-.19.51-.36,1-.52,1.54-.06.18-.12.34-.18.51a1.71,1.71,0,0,1-.09.3c-.23.77-.44,1.55-.63,2.33,0,.14-.06.29-.1.43-.14.65-.29,1.3-.4,2-.06.28-.1.56-.15.84-.09.53-.17,1.06-.23,1.6,0,.29-.08.58-.11.88-.06.55-.11,1.1-.15,1.66,0,.26,0,.51,0,.77-.05.81-.07,1.61-.07,2.42v39.12H66.78a5.33,5.33,0,0,0-3.78,9.1l58.24,58.24A113.92,113.92,0,0,0,224.09,142.72Z"/><path class="cls-4" d="M105.4,51.17a4.25,4.25,0,1,1-4.24-4.24A4.24,4.24,0,0,1,105.4,51.17Z"/><path class="cls-4" d="M113.89,51.17a4.25,4.25,0,1,1-4.25-4.24A4.25,4.25,0,0,1,113.89,51.17Z"/><circle class="cls-4" cx="118.14" cy="51.17" r="4.25"/><path class="cls-4" d="M130.87,51.17a4.25,4.25,0,1,1-4.25-4.24A4.25,4.25,0,0,1,130.87,51.17Z"/><path class="cls-4" d="M96.91,51.17c0,15.16,7.6,27.46,17,27.46s17-12.3,17-27.46Z"/><path class="cls-4" d="M164.78,161.74a5.33,5.33,0,0,0-3.77-1.57h-2.67V121.06a44.45,44.45,0,1,0-88.9,0v39.11H66.77A5.33,5.33,0,0,0,63,161.74a5.28,5.28,0,0,0-1.57,3.77,5.34,5.34,0,0,0,5.34,5.34H161a5.33,5.33,0,0,0,3.77-9.11Z"/><path class="cls-5" d="M125.89,75.3a2.36,2.36,0,0,1-2.36,2.36H104.25a2.36,2.36,0,0,1-2.36-2.36h0A2.36,2.36,0,0,1,104.25,73h19.28a2.36,2.36,0,0,1,2.36,2.35Z"/><path class="cls-6" d="M131.67,123.73a17.78,17.78,0,1,1-17.78-17.79A17.77,17.77,0,0,1,131.67,123.73Z"/><path class="cls-4" d="M115.76,125.29H112a5.94,5.94,0,1,1,0-11.87h8.12v3.13H112a2.81,2.81,0,1,0,0,5.61h3.75Z"/><path class="cls-4" d="M115.76,134h-8.11V130.9h8.11a2.81,2.81,0,0,0,2-4.79,2.86,2.86,0,0,0-2-.82H112v-3.13h3.75a5.92,5.92,0,0,1,5.94,5.94,6,6,0,0,1-5.94,5.94Z"/><rect class="cls-4" x="112.32" y="112.49" width="3.13" height="22.47"/></g></g></g></svg>