<svg xmlns="http://www.w3.org/2000/svg" viewBox="0 0 227.78 227.79"><defs><style>.cls-1{isolation:isolate;}.cls-2,.cls-3{fill:#0d60a9;}.cls-3{opacity:0.25;mix-blend-mode:multiply;}.cls-4{fill:#3a3a3a;}.cls-5{fill:#b2b2b2;}.cls-6{fill:#c9c9c9;}.cls-7{fill:#fff;}</style></defs><title>Asset 33</title><g class="cls-1"><g id="Layer_2" data-name="Layer 2"><g id="Layer_1-2" data-name="Layer 1"><path class="cls-2" d="M227.78,113.89A113.89,113.89,0,1,1,113.89,0,113.9,113.9,0,0,1,227.78,113.89Z"/><path class="cls-3" d="M225.17,138.13,161.3,74.26,113.89,52.17,66.48,74.26v40.61A70.25,70.25,0,0,0,84.91,162.4l60.83,60.83A114,114,0,0,0,225.17,138.13Z"/><path class="cls-4" d="M113.89,52.17,66.47,74.26v40.6a70.54,70.54,0,0,0,47.42,66.63,70.54,70.54,0,0,0,47.41-66.63V74.26Z"/><path class="cls-5" d="M113.89,62.16V171.82a61.5,61.5,0,0,0,38.36-57V80Z"/><path class="cls-6" d="M75.53,80v34.84a61.5,61.5,0,0,0,38.36,57V62.16Z"/><path class="cls-7" d="M137.81,115.7A23.92,23.92,0,1,1,113.9,91.77,23.91,23.91,0,0,1,137.81,115.7Z"/><path class="cls-4" d="M116.41,117.92h-5a8.1,8.1,0,1,1,0-16.2H122.3v4.44H111.37a3.66,3.66,0,1,0,0,7.32h5Z"/><path class="cls-4" d="M116.41,129.67H105.48v-4.43h10.93a3.66,3.66,0,1,0,0-7.32h-5v-4.44h5a8.1,8.1,0,1,1,0,16.19Z"/><rect class="cls-4" x="111.67" y="100.58" width="4.44" height="30.24"/></g></g></g></svg>