<svg xmlns="http://www.w3.org/2000/svg" viewBox="0 0 227.78 227.79"><defs><style>.cls-1{isolation:isolate;}.cls-2,.cls-3{fill:#0d60a9;}.cls-3{opacity:0.25;mix-blend-mode:multiply;}.cls-4{fill:#3a3a3a;}.cls-5{fill:#4f4f4f;}.cls-6{fill:#9c9c9c;}.cls-7{fill:#c9c9c9;}.cls-8{fill:#fff;}</style></defs><title>Asset 29</title><g class="cls-1"><g id="Layer_2" data-name="Layer 2"><g id="Layer_1-2" data-name="Layer 1"><path class="cls-2" d="M227.78,113.89A113.89,113.89,0,1,1,113.89,0,113.9,113.9,0,0,1,227.78,113.89Z"/><path class="cls-3" d="M222.94,146.78,153.16,77c-.09-.1-.21-.22-.31-.31a14.35,14.35,0,0,0-23.56,5.58H123.2a9.31,9.31,0,0,1-9.31,9.31l-9.3-9.31h-4.13L95.77,77.6a13,13,0,0,0-1.39-1.39A1,1,0,0,0,94.2,76l-.13-.1q-.39-.33-.81-.63l-.21-.14c-.26-.17-.52-.35-.79-.51L92,74.51c-.26-.15-.52-.28-.79-.41C91.11,74,91,74,90.9,74q-.39-.18-.78-.33l-.36-.13c-.25-.1-.51-.18-.78-.26l-.38-.11-.8-.18-.4-.08-.86-.12-.37,0c-.41,0-.83-.06-1.24-.06A14.35,14.35,0,0,0,70.67,85.33a26.43,26.43,0,0,0-6.43,4.74,23.33,23.33,0,0,0-1.57,1.73c-.12.13-.23.27-.34.41a26.18,26.18,0,0,0-5,10.06,28.7,28.7,0,0,0-5.42,43.79l80.25,80.25A114,114,0,0,0,222.94,146.78Z"/><path class="cls-4" d="M99.29,87A14.37,14.37,0,1,1,84.92,72.64,14.37,14.37,0,0,1,99.29,87Z"/><path class="cls-4" d="M157.22,87a14.36,14.36,0,1,1-14.36-14.37A14.37,14.37,0,0,1,157.22,87Z"/><path class="cls-5" d="M163.55,90.07a26.48,26.48,0,0,0-18.81-7.79H123.2a9.31,9.31,0,0,1-18.62,0H83a26.6,26.6,0,0,0-26.6,26.6v13.3h114.9v-13.3A26.48,26.48,0,0,0,163.55,90.07Z"/><rect class="cls-4" x="94.26" y="114.93" width="39.26" height="22.98"/><path class="cls-4" d="M101.54,126.42A28.73,28.73,0,1,1,72.82,97.7,28.73,28.73,0,0,1,101.54,126.42Z"/><path class="cls-6" d="M93.79,126.42a21,21,0,1,1-21-21A21,21,0,0,1,93.79,126.42Z"/><circle class="cls-7" cx="72.82" cy="126.42" r="15.8"/><path class="cls-8" d="M70.75,117.75a6.61,6.61,0,1,1-6.61-6.61A6.61,6.61,0,0,1,70.75,117.75Z"/><path class="cls-8" d="M75.4,126.42a2.59,2.59,0,1,1-2.58-2.58A2.58,2.58,0,0,1,75.4,126.42Z"/><path class="cls-4" d="M183.7,126.42A28.73,28.73,0,1,1,155,97.7,28.73,28.73,0,0,1,183.7,126.42Z"/><path class="cls-6" d="M175.94,126.42a21,21,0,1,1-21-21A21,21,0,0,1,175.94,126.42Z"/><path class="cls-7" d="M170.77,126.42a15.8,15.8,0,1,1-15.8-15.8A15.8,15.8,0,0,1,170.77,126.42Z"/><path class="cls-8" d="M152.9,117.75a6.61,6.61,0,1,1-6.61-6.61A6.6,6.6,0,0,1,152.9,117.75Z"/><path class="cls-8" d="M157.56,126.42a2.59,2.59,0,1,1-2.59-2.58A2.58,2.58,0,0,1,157.56,126.42Z"/><path class="cls-8" d="M118.2,126.42a4.31,4.31,0,1,1-4.31-4.31A4.31,4.31,0,0,1,118.2,126.42Z"/></g></g></g></svg>