<svg xmlns="http://www.w3.org/2000/svg" viewBox="0 0 227.78 227.78"><defs><style>.cls-1{isolation:isolate;}.cls-2,.cls-3{fill:#0d60a9;}.cls-3{opacity:0.25;mix-blend-mode:multiply;}.cls-4{fill:#fff;}.cls-5{fill:#cbcbcb;}.cls-6{fill:#f2f2f2;}.cls-7{fill:#d8d8d8;}.cls-8{fill:#3a3a3a;}</style></defs><title>Asset 36</title><g class="cls-1"><g id="Layer_2" data-name="Layer 2"><g id="Layer_1-2" data-name="Layer 1"><circle class="cls-2" cx="113.89" cy="113.89" r="113.89" transform="translate(-47.18 113.89) rotate(-45)"/><path class="cls-3" d="M161.12,53.8a8.06,8.06,0,0,0-5.72-2.36H64.29a8.07,8.07,0,0,0-8.08,8.08,8,8,0,0,0,.11,1.3,1.48,1.48,0,0,1,0,.19,8.21,8.21,0,0,0,.32,1.16l.09.25a8.08,8.08,0,0,0,.47,1l.15.23a7.64,7.64,0,0,0,.57.83.42.42,0,0,1,.09.14l.1.09a7.91,7.91,0,0,0,.91.92L72.38,79v89.27a8,8,0,0,0,2,5.34l.65.64,52.67,52.68a113.9,113.9,0,0,0,99.88-106.65Z"/><path class="cls-4" d="M64.29,51.44a8.08,8.08,0,0,1,8.09,8.08V168.26a8.08,8.08,0,0,0,8.08,8.09h83V59.52a8.07,8.07,0,0,0-8.09-8.08Z"/><path class="cls-5" d="M171.57,168.26a8.08,8.08,0,0,0-8.08-8.08h-83a8.09,8.09,0,0,1,0,16.17h83A8.08,8.08,0,0,0,171.57,168.26Z"/><path class="cls-5" d="M64.29,51.44a8.08,8.08,0,0,0,0,16.16h8.09V59.52A8.08,8.08,0,0,0,64.29,51.44Z"/><rect class="cls-6" x="133.36" y="91.56" width="15.43" height="49.37"/><path class="cls-7" d="M119,105H86V90.45H119Zm-30.86-2.21h28.66V92.66H88.17Z"/><path class="cls-7" d="M134.47,105H116.83V90.45h17.64ZM119,102.79h13.23V92.66H119Z"/><path class="cls-7" d="M149.89,105H132.26V90.45h17.63Zm-15.42-2.21h13.22V92.66H134.47Z"/><path class="cls-7" d="M119,117.34H86V102.79H119Zm-30.86-2.2h28.66V105H88.17Z"/><path class="cls-7" d="M134.47,117.34H116.83V102.79h17.64ZM119,115.14h13.23V105H119Z"/><path class="cls-7" d="M149.89,117.34H132.26V102.79h17.63Zm-15.42-2.2h13.22V105H134.47Z"/><path class="cls-7" d="M119,129.68H86V115.14H119Zm-30.86-2.2h28.66V117.34H88.17Z"/><path class="cls-7" d="M134.47,129.68H116.83V115.14h17.64ZM119,127.48h13.23V117.34H119Z"/><path class="cls-7" d="M149.89,129.68H132.26V115.14h17.63Zm-15.42-2.2h13.22V117.34H134.47Z"/><path class="cls-7" d="M119,105H86V90.45H119Zm-30.86-2.21h28.66V92.66H88.17Z"/><path class="cls-7" d="M134.47,105H116.83V90.45h17.64ZM119,102.79h13.23V92.66H119Z"/><path class="cls-7" d="M149.89,105H132.26V90.45h17.63Zm-15.42-2.21h13.22V92.66H134.47Z"/><path class="cls-7" d="M119,117.34H86V102.79H119Zm-30.86-2.2h28.66V105H88.17Z"/><path class="cls-7" d="M134.47,117.34H116.83V102.79h17.64ZM119,115.14h13.23V105H119Z"/><path class="cls-7" d="M149.89,117.34H132.26V102.79h17.63Zm-15.42-2.2h13.22V105H134.47Z"/><path class="cls-7" d="M119,129.68H86V115.14H119Zm-30.86-2.2h28.66V117.34H88.17Z"/><path class="cls-7" d="M134.47,129.68H116.83V115.14h17.64ZM119,127.48h13.23V117.34H119Z"/><path class="cls-7" d="M149.89,129.68H132.26V115.14h17.63Zm-15.42-2.2h13.22V117.34H134.47Z"/><path class="cls-7" d="M119,142H86V127.48H119Zm-30.86-2.2h28.66V129.68H88.17Z"/><path class="cls-7" d="M134.47,142H116.83V127.48h17.64ZM119,139.82h13.23V129.68H119Z"/><path class="cls-7" d="M149.89,142H132.26V127.48h17.63Zm-15.42-2.2h13.22V129.68H134.47Z"/><rect class="cls-7" x="85.97" y="75.47" width="16.53" height="2.21"/><rect class="cls-8" x="132.26" y="146.43" width="17.63" height="2.21"/><rect class="cls-8" x="85.97" y="71.06" width="33.06" height="2.21"/><rect class="cls-7" x="85.97" y="82.08" width="63.92" height="8.37"/></g></g></g></svg>