<svg xmlns="http://www.w3.org/2000/svg" viewBox="0 0 227.78 227.78"><defs><style>.cls-1{isolation:isolate;}.cls-2,.cls-3{fill:#0d60a9;}.cls-3{opacity:0.25;mix-blend-mode:multiply;}.cls-4{fill:#e5e5e5;}.cls-5{fill:#b2b2b2;}.cls-6{fill:#c9c9c9;}.cls-7{fill:#fff;}</style></defs><title>Asset 31</title><g class="cls-1"><g id="Layer_2" data-name="Layer 2"><g id="Layer_1-2" data-name="Layer 1"><circle class="cls-2" cx="113.89" cy="113.89" r="113.89" transform="translate(-23.12 198.57) rotate(-76.72)"/><path class="cls-3" d="M227.75,115.32,161.89,49.45l-.12-.11a4.4,4.4,0,0,0-3.06-1.24H69.07a4.42,4.42,0,0,0-4.41,4.41V88.19L51.44,97.74v76.07l53.6,53.6c2.93.23,5.87.37,8.85.37A113.87,113.87,0,0,0,227.75,115.32Z"/><polygon class="cls-4" points="113.9 52.62 51.44 97.75 51.44 173.8 176.35 173.8 176.35 97.75 113.9 52.62"/><path class="cls-5" d="M163.12,142.48a4.42,4.42,0,0,1-4.41,4.41H69.07a4.42,4.42,0,0,1-4.41-4.41V101a4.42,4.42,0,0,1,4.41-4.41h89.64a4.42,4.42,0,0,1,4.41,4.41Z"/><path class="cls-6" d="M163.12,138.07a4.42,4.42,0,0,1-4.41,4.41H69.07a4.42,4.42,0,0,1-4.41-4.41V96.6a4.42,4.42,0,0,1,4.41-4.41h89.64a4.42,4.42,0,0,1,4.41,4.41Z"/><path class="cls-5" d="M163.12,133.66a4.42,4.42,0,0,1-4.41,4.41H69.07a4.42,4.42,0,0,1-4.41-4.41V92.19a4.42,4.42,0,0,1,4.41-4.4h89.64a4.42,4.42,0,0,1,4.41,4.4Z"/><path class="cls-6" d="M163.12,129.25a4.42,4.42,0,0,1-4.41,4.41H69.07a4.42,4.42,0,0,1-4.41-4.41V87.79a4.43,4.43,0,0,1,4.41-4.42h89.64a4.43,4.43,0,0,1,4.41,4.42Z"/><path class="cls-5" d="M163.12,124.85a4.42,4.42,0,0,1-4.41,4.4H69.07a4.42,4.42,0,0,1-4.41-4.4V83.37A4.42,4.42,0,0,1,69.07,79h89.64a4.42,4.42,0,0,1,4.41,4.4Z"/><path class="cls-6" d="M163.12,120.44a4.42,4.42,0,0,1-4.41,4.41H69.07a4.42,4.42,0,0,1-4.41-4.41V79a4.42,4.42,0,0,1,4.41-4.41h89.64A4.42,4.42,0,0,1,163.12,79Z"/><path class="cls-5" d="M163.12,116a4.42,4.42,0,0,1-4.41,4.41H69.07A4.42,4.42,0,0,1,64.66,116V74.56a4.42,4.42,0,0,1,4.41-4.41h89.64a4.42,4.42,0,0,1,4.41,4.41Z"/><path class="cls-6" d="M163.12,111.62a4.42,4.42,0,0,1-4.41,4.41H69.07a4.42,4.42,0,0,1-4.41-4.41V70.15a4.42,4.42,0,0,1,4.41-4.41h89.64a4.42,4.42,0,0,1,4.41,4.41Z"/><path class="cls-5" d="M163.12,107.21a4.42,4.42,0,0,1-4.41,4.41H69.07a4.42,4.42,0,0,1-4.41-4.41V65.74a4.42,4.42,0,0,1,4.41-4.41h89.64a4.42,4.42,0,0,1,4.41,4.41Z"/><path class="cls-6" d="M163.12,102.8a4.42,4.42,0,0,1-4.41,4.41H69.07a4.42,4.42,0,0,1-4.41-4.41V61.33a4.42,4.42,0,0,1,4.41-4.4h89.64a4.42,4.42,0,0,1,4.41,4.4Z"/><path class="cls-5" d="M163.12,98.39a4.42,4.42,0,0,1-4.41,4.41H69.07a4.42,4.42,0,0,1-4.41-4.41V56.93a4.42,4.42,0,0,1,4.41-4.41h89.64a4.42,4.42,0,0,1,4.41,4.41Z"/><path class="cls-6" d="M163.12,94a4.42,4.42,0,0,1-4.41,4.4H69.07A4.42,4.42,0,0,1,64.66,94V52.52a4.42,4.42,0,0,1,4.41-4.41h89.64a4.42,4.42,0,0,1,4.41,4.41Z"/><path class="cls-5" d="M153.46,94H74.32V92A3.31,3.31,0,0,0,71,88.73H69v-31h2a3.31,3.31,0,0,0,3.31-3.31v-2h79.14v2a3.31,3.31,0,0,0,3.31,3.31h2v31h-2A3.31,3.31,0,0,0,153.46,92ZM78,90.06h71.74a7.33,7.33,0,0,1,5-5V61.46a7.29,7.29,0,0,1-5-5H78a7.29,7.29,0,0,1-5,5V85A7.33,7.33,0,0,1,78,90.06Z"/><path class="cls-5" d="M113.89,85.82a12.57,12.57,0,1,1,12.57-12.57A12.59,12.59,0,0,1,113.89,85.82Zm0-21.17a8.61,8.61,0,1,0,8.6,8.6A8.61,8.61,0,0,0,113.89,64.65Z"/><rect class="cls-5" x="131.1" y="71.27" width="13.23" height="3.97"/><rect class="cls-5" x="83.45" y="71.27" width="13.24" height="3.97"/><polygon class="cls-7" points="176.35 97.75 176.35 173.8 113.9 135.78 176.35 97.75"/><polygon class="cls-7" points="113.9 135.78 51.44 173.8 51.44 97.75 113.9 135.78"/><polygon class="cls-4" points="176.35 173.8 51.44 173.8 113.9 135.78 176.35 173.8"/></g></g></g></svg>