<svg xmlns="http://www.w3.org/2000/svg" viewBox="0 0 227.79 227.79"><defs><style>.cls-1{isolation:isolate;}.cls-2,.cls-3{fill:#0d60a9;}.cls-3{opacity:0.25;mix-blend-mode:multiply;}.cls-4{fill:#fff;}.cls-5{fill:#cbcbcb;}.cls-6{fill:#d8d8d8;}.cls-7{fill:#3a3a3a;}.cls-8{fill:#e5e5e5;}.cls-9{fill:#8b8b8b;}</style></defs><title>Asset 30</title><g class="cls-1"><g id="Layer_2" data-name="Layer 2"><g id="Layer_1-2" data-name="Layer 1"><path class="cls-2" d="M227.79,113.9A113.9,113.9,0,1,1,113.89,0,113.9,113.9,0,0,1,227.79,113.9Z"/><path class="cls-3" d="M227.6,120.29,161,53.68a8,8,0,0,0-5.57-2.24H64.29a8.08,8.08,0,0,0-8.08,8.08,7.87,7.87,0,0,0,.13,1.38.86.86,0,0,0,0,.17,6.86,6.86,0,0,0,.33,1.2c0,.09.06.17.1.26a6.41,6.41,0,0,0,.52,1,1.88,1.88,0,0,0,.14.24,8.18,8.18,0,0,0,.74,1s0,0,0,0l.05,0a5.93,5.93,0,0,0,.62.61L72.38,79v89.26a8,8,0,0,0,1.67,4.92l1.44,1.44,52.28,52.28A113.9,113.9,0,0,0,227.6,120.29Z"/><path class="cls-4" d="M64.29,51.44a8.08,8.08,0,0,1,8.09,8.08V168.27a8.08,8.08,0,0,0,8.08,8.08h83V59.52a8.09,8.09,0,0,0-8.08-8.08Z"/><path class="cls-5" d="M171.57,168.26a8.07,8.07,0,0,0-8.08-8.07h-83a8.08,8.08,0,1,1,0,16.16h83A8.08,8.08,0,0,0,171.57,168.26Z"/><path class="cls-5" d="M64.29,51.44a8.09,8.09,0,0,0,0,16.17h8.09V59.52A8.08,8.08,0,0,0,64.29,51.44Z"/><rect class="cls-6" x="128.33" y="147.23" width="24.51" height="2.94"/><rect class="cls-6" x="83.04" y="84.23" width="69.8" height="2.94"/><rect class="cls-6" x="83.04" y="76.89" width="69.8" height="2.94"/><rect class="cls-7" x="83.04" y="69.54" width="34.9" height="2.94"/><path class="cls-8" d="M152.91,140.83H83V93.56h70Zm-68-1.91H151V95.48H84.87Z"/><rect class="cls-8" x="83.92" y="127.58" width="68.04" height="1.91"/><rect class="cls-8" x="83.92" y="116.24" width="68.04" height="1.91"/><rect class="cls-8" x="83.92" y="104.9" width="68.04" height="1.91"/><rect class="cls-8" x="139.65" y="94.52" width="1.91" height="45.36"/><rect class="cls-8" x="128.33" y="94.52" width="1.91" height="45.36"/><rect class="cls-8" x="116.98" y="94.52" width="1.92" height="45.36"/><rect class="cls-8" x="105.64" y="94.52" width="1.91" height="45.36"/><rect class="cls-8" x="94.31" y="94.52" width="1.91" height="45.36"/><polygon class="cls-9" points="84.8 140.76 83.04 139 94.75 127.29 106.07 127.29 128.77 104.61 140.09 104.61 151.07 93.64 152.84 95.41 141.12 107.11 129.8 107.11 107.11 129.79 95.78 129.79 84.8 140.76"/><path class="cls-9" d="M86.64,139.88a2.73,2.73,0,1,1-2.72-2.72A2.72,2.72,0,0,1,86.64,139.88Z"/><path class="cls-9" d="M98,128.54a2.73,2.73,0,1,1-2.73-2.72A2.72,2.72,0,0,1,98,128.54Z"/><path class="cls-9" d="M109.31,128.54a2.72,2.72,0,1,1-2.72-2.72A2.72,2.72,0,0,1,109.31,128.54Z"/><circle class="cls-9" cx="129.28" cy="105.86" r="2.72"/><path class="cls-9" d="M143.33,105.86a2.73,2.73,0,1,1-2.72-2.72A2.72,2.72,0,0,1,143.33,105.86Z"/><path class="cls-9" d="M154.68,94.52A2.73,2.73,0,1,1,152,91.8,2.72,2.72,0,0,1,154.68,94.52Z"/></g></g></g></svg>