<svg xmlns="http://www.w3.org/2000/svg" viewBox="0 0 227.79 227.78"><defs><style>.cls-1{isolation:isolate;}.cls-2,.cls-3{fill:#0d60a9;}.cls-3{opacity:0.25;mix-blend-mode:multiply;}.cls-4{fill:#4f4f4f;}.cls-5{fill:#3a3a3a;}.cls-6{fill:#242424;}.cls-7{fill:#fff;}.cls-8{fill:#e5e5e5;}.cls-9{fill:#8b8b8b;}.cls-10{fill:#797979;}</style></defs><title>Asset 42</title><g class="cls-1"><g id="Layer_2" data-name="Layer 2"><g id="Layer_1-2" data-name="Layer 1"><path class="cls-2" d="M227.79,113.89A113.9,113.9,0,1,1,113.89,0,113.89,113.89,0,0,1,227.79,113.89Z"/><path class="cls-3" d="M227.11,126.18l-76-76-.6-.6a1.5,1.5,0,0,0-.53-.24l-3-.72a1.88,1.88,0,0,0-1.39.22A1.76,1.76,0,0,0,144.8,50l-.87,3.59,6.6,1.59-6.91-1.65a1.8,1.8,0,0,0-1.4.22,1.94,1.94,0,0,0-.83,1.14l-1.07,4.45h0L123.56,42.61H104.22V80L80.59,56.39l-1,3.52L77.46,67l8.48,35.2H79.33v72.45a10.49,10.49,0,0,0,3,7.35l.07.08a.28.28,0,0,0,.09.07L127.28,227A113.91,113.91,0,0,0,227.11,126.18Z"/><rect class="cls-4" x="87.55" y="65.37" width="3.69" height="86.65" transform="translate(-22.95 23.93) rotate(-13.53)"/><rect class="cls-5" x="91.14" y="64.51" width="3.7" height="86.65" transform="translate(-22.6 24.68) rotate(-13.49)"/><rect class="cls-6" x="94.74" y="63.65" width="3.69" height="86.65" transform="translate(-22.31 25.52) rotate(-13.51)"/><polygon class="cls-7" points="88.24 64.42 83.13 59.05 79.55 59.91 77.46 67.01 88.24 64.42"/><polygon class="cls-8" points="88.24 64.42 84.64 65.28 81.94 59.34 83.13 59.05 88.24 64.42"/><polygon class="cls-4" points="83.13 59.05 80.6 56.38 79.55 59.91 83.13 59.05"/><rect class="cls-8" x="105.31" y="149.04" width="3.7" height="3.7" transform="translate(-32.23 29.14) rotate(-13.48)"/><polygon class="cls-7" points="105.8 153.12 98.62 154.85 97.74 151.25 104.94 149.53 105.8 153.12"/><path class="cls-5" d="M109.59,153.1l-.2-.84-3.59.86.2.84a5.54,5.54,0,0,1-.66,4.19,5.47,5.47,0,0,1-1.71,1.74,5.34,5.34,0,0,0,1.87-.1,5.68,5.68,0,0,0,3.44-2.51A5.51,5.51,0,0,0,109.59,153.1Z"/><path class="cls-4" d="M106,154l-.2-.84-7.19,1.73.2.83a5.49,5.49,0,0,0,4.82,4.21,5.47,5.47,0,0,0,1.71-1.74A5.54,5.54,0,0,0,106,154Z"/><rect class="cls-4" x="95.5" y="98.37" width="79.62" height="11.1" transform="translate(2.5 211.01) rotate(-76.41)"/><path class="cls-7" d="M150.52,55.21l-6.59-1.58.87-3.6a1.81,1.81,0,0,1,.83-1.14,1.88,1.88,0,0,1,1.4-.23l3,.74a1.76,1.76,0,0,1,1.14.83,1.73,1.73,0,0,1,.22,1.39Z"/><path class="cls-5" d="M152.19,57.52a1.82,1.82,0,0,0-.23-1.39,1.85,1.85,0,0,0-1.14-.84l-7.19-1.73a1.85,1.85,0,0,0-1.4.22,1.87,1.87,0,0,0-.84,1.14l-2.16,9L150,66.52Z"/><path class="cls-5" d="M150,66.52l-.58,2.39a2,2,0,0,1,1.28.94,2.07,2.07,0,0,1,.25,1.54l-6,25,2.4.57,6-25A4.51,4.51,0,0,0,150,66.52Z"/><path class="cls-7" d="M122.13,153.11l.17,3.06a.41.41,0,0,0,.32.39.45.45,0,0,0,.49-.2l1.54-2.65Z"/><polygon class="cls-5" points="125.54 153.93 121.22 152.88 120.59 141.31 131.37 143.92 125.54 153.93"/><rect class="cls-9" x="104.22" y="42.62" width="19.35" height="109.68"/><rect class="cls-10" x="104.22" y="42.62" width="5.95" height="109.68"/><rect class="cls-7" x="117.62" y="47.41" width="5.95" height="2.59"/><rect class="cls-7" x="120.6" y="53.5" width="2.97" height="2.59"/><rect class="cls-7" x="117.62" y="59.61" width="5.95" height="2.59"/><rect class="cls-7" x="120.6" y="65.7" width="2.97" height="2.57"/><rect class="cls-7" x="117.62" y="71.8" width="5.95" height="2.57"/><rect class="cls-7" x="120.6" y="77.88" width="2.97" height="2.58"/><rect class="cls-7" x="117.62" y="83.98" width="5.95" height="2.59"/><rect class="cls-7" x="120.8" y="89.87" width="2.57" height="2.97" transform="translate(30.47 213.25) rotate(-89.88)"/><rect class="cls-7" x="119.31" y="94.48" width="2.57" height="5.96" transform="translate(22.85 217.82) rotate(-89.87)"/><rect class="cls-7" x="120.6" y="102.25" width="2.97" height="2.59" transform="translate(-0.22 0.26) rotate(-0.12)"/><rect class="cls-7" x="117.62" y="108.35" width="5.95" height="2.59"/><rect class="cls-7" x="120.8" y="114.24" width="2.58" height="2.97" transform="matrix(0, -1, 1, 0, 6.1, 237.57)"/><rect class="cls-7" x="117.62" y="120.54" width="5.95" height="2.57"/><rect class="cls-7" x="120.6" y="126.63" width="2.97" height="2.58"/><rect class="cls-7" x="117.62" y="132.72" width="5.95" height="2.59"/><rect class="cls-7" x="120.6" y="138.81" width="2.97" height="2.59" transform="translate(-0.29 0.26) rotate(-0.12)"/><rect class="cls-7" x="117.62" y="144.91" width="5.95" height="2.57"/><path class="cls-7" d="M148.46,102.21H79.33v72.45a10.5,10.5,0,0,0,10.5,10.5H138a10.5,10.5,0,0,0,10.51-10.5Z"/><path class="cls-8" d="M130.45,102.21v72.45a10.48,10.48,0,0,1-10.51,10.5h18a10.5,10.5,0,0,0,10.51-10.5V102.21Z"/></g></g></g></svg>