<svg xmlns="http://www.w3.org/2000/svg" viewBox="0 0 227.78 227.79"><defs><style>.cls-1{isolation:isolate;}.cls-2,.cls-3{fill:#0d60a9;}.cls-3{opacity:0.25;mix-blend-mode:multiply;}.cls-4{fill:#fff;}.cls-5{fill:#f2f2f2;}.cls-6{fill:#cbcbcb;}.cls-7{fill:#e5e5e5;}.cls-8{fill:#8b8b8b;}.cls-9{fill:#3a3a3a;}</style></defs><title>Asset 39</title><g class="cls-1"><g id="Layer_2" data-name="Layer 2"><g id="Layer_1-2" data-name="Layer 1"><path class="cls-2" d="M227.78,113.89A113.89,113.89,0,1,1,113.89,0,113.9,113.9,0,0,1,227.78,113.89Z"/><path class="cls-3" d="M227.1,126.25,163,62.18l-.26-.28-.28-.27a3.79,3.79,0,0,0-2.37-.82H86.35l-5.41-5.4a9.39,9.39,0,0,0-3.38-2.94l-.19-.1a10.86,10.86,0,0,0-1.07-.43l-.16-.06a8.65,8.65,0,0,0-1.22-.29l-.31-.05a9.51,9.51,0,0,0-1.31-.1,9.37,9.37,0,0,0-9.38,9.37V167a9.19,9.19,0,0,0,2.3,6.13l1,1,53.51,53.51A113.9,113.9,0,0,0,227.1,126.25Z"/><path class="cls-4" d="M160.1,60.81a3.76,3.76,0,0,1,3.75,3.74v98.69a3.72,3.72,0,0,1-1.1,2.65A3.77,3.77,0,0,1,160.1,167H82.66V60.81Z"/><path class="cls-5" d="M73.29,51.44a9.36,9.36,0,0,0-9.37,9.37V167a9.37,9.37,0,0,1,18.74,0V60.81A9.36,9.36,0,0,0,73.29,51.44Z"/><path class="cls-6" d="M82.66,167a9.37,9.37,0,1,0-9.37,9.37h77.45a3.76,3.76,0,0,0,3.75-3.75V167Z"/><path class="cls-6" d="M63.92,71.36v21A9.37,9.37,0,0,1,73.29,83V62A9.37,9.37,0,0,0,63.92,71.36Z"/><path class="cls-7" d="M63.92,96.58v4.2a9.36,9.36,0,0,1,9.37-9.37v-4.2A9.36,9.36,0,0,0,63.92,96.58Z"/><path class="cls-7" d="M63.92,105v4.2a9.37,9.37,0,0,1,9.37-9.37v-4.2A9.37,9.37,0,0,0,63.92,105Z"/><path class="cls-7" d="M63.92,113.38v4.21a9.36,9.36,0,0,1,9.37-9.37V104A9.36,9.36,0,0,0,63.92,113.38Z"/><path class="cls-7" d="M63.92,121.79V126a9.37,9.37,0,0,1,9.37-9.37v-4.2A9.37,9.37,0,0,0,63.92,121.79Z"/><path class="cls-7" d="M63.92,130.2v4.2A9.36,9.36,0,0,1,73.29,125v-4.2A9.36,9.36,0,0,0,63.92,130.2Z"/><rect class="cls-7" x="91.4" y="152.22" width="29.75" height="4.2"/><rect class="cls-7" x="91.4" y="143.82" width="29.75" height="4.2"/><rect class="cls-7" x="91.4" y="135.41" width="29.75" height="4.2"/><rect class="cls-7" x="91.4" y="127.01" width="29.75" height="4.2"/><rect class="cls-7" x="91.4" y="118.6" width="29.75" height="4.2"/><rect class="cls-7" x="125.36" y="152.22" width="29.75" height="4.2"/><rect class="cls-6" x="125.36" y="127.01" width="29.75" height="21.01"/><rect class="cls-7" x="125.36" y="118.6" width="29.75" height="4.2"/><rect class="cls-7" x="125.36" y="110.2" width="29.75" height="4.2"/><rect class="cls-7" x="125.36" y="101.79" width="29.75" height="4.2"/><rect class="cls-7" x="125.36" y="93.39" width="29.75" height="4.2"/><rect class="cls-7" x="125.36" y="84.99" width="29.75" height="4.2"/><rect class="cls-8" x="91.4" y="71.36" width="63.7" height="8.4"/><rect class="cls-9" x="91.4" y="110.2" width="29.75" height="4.2"/><rect class="cls-8" x="91.4" y="99.7" width="4.2" height="6.3"/><rect class="cls-8" x="97.79" y="90.22" width="4.2" height="15.78"/><rect class="cls-8" x="104.18" y="96.32" width="4.2" height="9.67"/><rect class="cls-8" x="110.57" y="93.03" width="4.2" height="12.97"/><rect class="cls-8" x="116.95" y="85.24" width="4.2" height="20.76"/></g></g></g></svg>