<svg xmlns="http://www.w3.org/2000/svg" viewBox="0 0 227.78 227.79"><defs><style>.cls-1{isolation:isolate;}.cls-2,.cls-3{fill:#0d60a9;}.cls-3{opacity:0.25;mix-blend-mode:multiply;}.cls-4{fill:#d1d1d1;}.cls-5{fill:#bbb;}.cls-6{fill:#242424;}.cls-7{fill:#a5a5a5;}.cls-8{fill:#8b8b8b;}.cls-9{fill:#797979;}.cls-10{fill:#fff;}.cls-11{fill:#e5e5e5;}</style></defs><title>Asset 49</title><g class="cls-1"><g id="Layer_2" data-name="Layer 2"><g id="Layer_1-2" data-name="Layer 1"><path class="cls-2" d="M227.78,113.9A113.89,113.89,0,1,1,113.89,0,113.89,113.89,0,0,1,227.78,113.9Z"/><path class="cls-3" d="M121.69,227.49a113.94,113.94,0,0,0,101.4-81.22L153.85,77l-.06-.07-1.87-1.87a.17.17,0,0,1-.06-.06,55.12,55.12,0,0,0-93.08,40h-11v22l11,11,1.1,1.1-12.11,4.4Z"/><path class="cls-4" d="M113.89,59.89A55.11,55.11,0,0,0,58.78,115h22A33.06,33.06,0,1,1,147,115H169A55.11,55.11,0,0,0,113.89,59.89Z"/><rect class="cls-4" x="47.76" y="115" width="132.26" height="22.04"/><rect class="cls-5" x="47.76" y="126.02" width="132.26" height="11.02"/><rect class="cls-6" x="51.15" y="131.53" width="3.39" height="5.51"/><rect class="cls-6" x="57.93" y="131.53" width="3.39" height="5.51"/><rect class="cls-6" x="64.71" y="131.53" width="3.39" height="5.51"/><rect class="cls-6" x="71.5" y="131.53" width="3.39" height="5.51"/><rect class="cls-6" x="78.28" y="131.53" width="3.39" height="5.51"/><rect class="cls-6" x="85.07" y="131.53" width="3.39" height="5.51"/><rect class="cls-6" x="91.85" y="131.53" width="3.39" height="5.51"/><rect class="cls-6" x="98.63" y="131.53" width="3.39" height="5.51"/><rect class="cls-6" x="105.41" y="131.53" width="3.39" height="5.51"/><rect class="cls-6" x="112.19" y="131.53" width="3.39" height="5.51"/><rect class="cls-6" x="118.98" y="131.53" width="3.39" height="5.51"/><rect class="cls-6" x="125.76" y="131.53" width="3.39" height="5.51"/><rect class="cls-6" x="132.54" y="131.53" width="3.39" height="5.51"/><rect class="cls-6" x="139.33" y="131.53" width="3.39" height="5.51"/><rect class="cls-6" x="146.1" y="131.53" width="3.39" height="5.51"/><rect class="cls-6" x="152.89" y="131.53" width="3.39" height="5.51"/><rect class="cls-6" x="159.67" y="131.53" width="3.39" height="5.51"/><rect class="cls-6" x="166.45" y="131.53" width="3.39" height="5.51"/><rect class="cls-6" x="173.24" y="131.53" width="3.39" height="5.51"/><path class="cls-5" d="M158,115a44.09,44.09,0,0,0-88.17,0h11A33.06,33.06,0,1,1,147,115Z"/><rect class="cls-7" x="57.29" y="148.06" width="122.72" height="3.67"/><rect class="cls-8" x="57.29" y="151.73" width="122.72" height="3.68"/><rect class="cls-9" x="57.29" y="155.4" width="122.72" height="3.67"/><polygon class="cls-10" points="57.29 159.08 50.94 155.4 50.94 151.74 57.29 148.06 57.29 159.08"/><polygon class="cls-11" points="57.29 159.08 57.29 155.4 50.94 154.17 50.94 155.4 57.29 159.08"/><polygon class="cls-6" points="50.94 155.4 47.76 153.56 50.94 151.74 50.94 155.4"/><rect class="cls-11" x="169.85" y="155.4" width="3.39" height="3.67"/><rect class="cls-10" x="169.85" y="148.06" width="3.39" height="7.34"/></g></g></g></svg>