<svg xmlns="http://www.w3.org/2000/svg" viewBox="0 0 227.78 227.78"><defs><style>.cls-1{isolation:isolate;}.cls-2,.cls-3{fill:#0d60a9;}.cls-3{opacity:0.25;mix-blend-mode:multiply;}.cls-4{fill:#d1d1d1;}.cls-5{fill:#a5a5a5;}.cls-6{fill:#8b8b8b;}.cls-7{fill:#3a3a3a;}.cls-8{fill:#fff;}</style></defs><title>Asset 48</title><g class="cls-1"><g id="Layer_2" data-name="Layer 2"><g id="Layer_1-2" data-name="Layer 1"><circle class="cls-2" cx="113.89" cy="113.89" r="113.89" transform="translate(-47.17 113.89) rotate(-45)"/><path class="cls-3" d="M117.23,227.7A113.87,113.87,0,0,0,227.38,123.1L175.28,71l-.08-.07a.46.46,0,0,0-.07-.07,3.83,3.83,0,0,0-2.69-1.08H145.13l-6.51-6.5a4.35,4.35,0,0,0-3.11-1.3H92.27a4.42,4.42,0,0,0-4.4,4.41v3.39H55.34a3.91,3.91,0,0,0-2.76,6.67l2.76,2.77v86.6Z"/><rect class="cls-4" x="55.34" y="77.59" width="117.11" height="88.22"/><path class="cls-5" d="M55.34,77.59v22.9a6.51,6.51,0,1,0,13,0V77.59Z"/><path class="cls-6" d="M68.35,77.59v22.9a6.51,6.51,0,1,0,13,0V77.59Z"/><path class="cls-5" d="M81.36,77.59v22.9a6.51,6.51,0,1,0,13,0V77.59Z"/><path class="cls-6" d="M94.37,77.59v22.9a6.51,6.51,0,0,0,13,0V77.59Z"/><path class="cls-5" d="M107.39,77.59v22.9a6.51,6.51,0,1,0,13,0V77.59Z"/><path class="cls-6" d="M120.4,77.59v22.9a6.51,6.51,0,1,0,13,0V77.59Z"/><path class="cls-5" d="M133.41,77.59v22.9a6.51,6.51,0,1,0,13,0V77.59Z"/><path class="cls-6" d="M146.42,77.59v22.9a6.51,6.51,0,1,0,13,0V77.59Z"/><path class="cls-5" d="M159.44,77.59v22.9a6.5,6.5,0,1,0,13,0V77.59Z"/><path class="cls-7" d="M176.35,73.68a3.89,3.89,0,0,0-3.91-3.9H55.34a3.89,3.89,0,0,0-3.9,3.9h0a3.91,3.91,0,0,0,3.9,3.91h117.1a3.91,3.91,0,0,0,3.91-3.91Z"/><path class="cls-7" d="M139.91,66.38a4.42,4.42,0,0,0-4.4-4.41H92.28a4.42,4.42,0,0,0-4.41,4.41V77.59h52Z"/><rect class="cls-8" x="91.77" y="65.87" width="44.24" height="7.81"/><rect class="cls-7" x="68.35" y="115.06" width="26.02" height="50.74"/><rect class="cls-8" x="72.25" y="118.96" width="18.22" height="42.94"/><rect class="cls-7" x="72.25" y="138.48" width="18.22" height="3.9"/><rect class="cls-7" x="107.39" y="115.06" width="52.05" height="27.32"/><rect class="cls-8" x="111.29" y="118.96" width="44.24" height="19.52"/><rect class="cls-7" x="131.46" y="118.96" width="3.9" height="19.52"/><rect class="cls-7" x="55.34" y="161.9" width="117.11" height="3.9"/></g></g></g></svg>