<svg xmlns="http://www.w3.org/2000/svg" viewBox="0 0 227.78 227.78"><defs><style>.cls-1{isolation:isolate;}.cls-2,.cls-3{fill:#0d60a9;}.cls-3{opacity:0.25;mix-blend-mode:multiply;}.cls-4{fill:#fff;}.cls-5{fill:#e5e5e5;}.cls-6{fill:#cbcbcb;}.cls-7{fill:#3a3a3a;}.cls-8{fill:#4f4f4f;}.cls-9{fill:#9c9c9c;}.cls-10{fill:#c9c9c9;}</style></defs><title>Asset 32</title><g class="cls-1"><g id="Layer_2" data-name="Layer 2"><g id="Layer_1-2" data-name="Layer 1"><circle class="cls-2" cx="113.89" cy="113.89" r="113.89" transform="translate(-23.12 198.57) rotate(-76.72)"/><path class="cls-3" d="M226.29,132.24l-80.8-80.8H70.54a4.39,4.39,0,0,0-4.41,4.41V171.94a4.36,4.36,0,0,0,1.29,3.12L120,227.62A113.93,113.93,0,0,0,226.29,132.24Z"/><path class="cls-4" d="M161.65,67.6V171.94a4.4,4.4,0,0,1-4.41,4.41H70.54a4.4,4.4,0,0,1-4.41-4.41V55.85a4.39,4.39,0,0,1,4.41-4.41h75Z"/><path class="cls-5" d="M161.65,67.6H149.89a4.4,4.4,0,0,1-4.4-4.41V51.44Z"/><rect class="cls-6" x="82.29" y="87.37" width="63.19" height="4.95"/><rect class="cls-6" x="82.29" y="97.26" width="63.19" height="4.94"/><rect class="cls-7" x="82.29" y="67.6" width="31.6" height="4.94"/><rect class="cls-6" x="82.29" y="77.49" width="63.19" height="4.94"/><rect class="cls-6" x="82.29" y="156.59" width="63.19" height="4.94"/><rect class="cls-6" x="82.29" y="146.7" width="63.19" height="4.95"/><rect class="cls-6" x="82.29" y="136.81" width="63.19" height="4.94"/><rect class="cls-6" x="82.29" y="126.93" width="63.19" height="4.94"/><rect class="cls-6" x="82.29" y="117.04" width="63.19" height="4.94"/><rect class="cls-6" x="82.29" y="107.15" width="63.19" height="4.95"/><rect class="cls-8" x="137.13" y="135.48" width="5.64" height="6.28"/><path class="cls-7" d="M139.94,77.49a29.66,29.66,0,1,0,29.67,29.65A29.65,29.65,0,0,0,139.94,77.49Z"/><path class="cls-9" d="M139.94,130.88a23.73,23.73,0,1,1,23.74-23.74A23.73,23.73,0,0,1,139.94,130.88Z"/><path class="cls-10" d="M139.94,126.15a19,19,0,1,1,19-19A19,19,0,0,1,139.94,126.15Z"/><path class="cls-4" d="M143.25,107.14a3.31,3.31,0,1,1-3.3-3.3A3.31,3.31,0,0,1,143.25,107.14Z"/><path class="cls-4" d="M137.27,97a7.44,7.44,0,1,1-7.44-7.43A7.44,7.44,0,0,1,137.27,97Z"/><path class="cls-7" d="M145.49,144.43v26.38a5.55,5.55,0,0,1-11.09,0V144.43Z"/><path class="cls-5" d="M145.49,144.42H134.41v-.68a2,2,0,0,1,.58-1.4,1.92,1.92,0,0,1,1.39-.58h7.13a2,2,0,0,1,1.4.58,2,2,0,0,1,.58,1.4Z"/></g></g></g></svg>