<svg xmlns="http://www.w3.org/2000/svg" viewBox="0 0 227.78 227.78"><defs><style>.cls-1{isolation:isolate;}.cls-2,.cls-3{fill:#0d60a9;}.cls-3{opacity:0.25;mix-blend-mode:multiply;}.cls-4{fill:#fff;}.cls-5{fill:#3a3a3a;}.cls-6{fill:#d8d8d8;}</style></defs><title>Asset 38</title><g class="cls-1"><g id="Layer_2" data-name="Layer 2"><g id="Layer_1-2" data-name="Layer 1"><circle class="cls-2" cx="113.89" cy="113.89" r="113.89" transform="translate(-23.12 198.57) rotate(-76.72)"/><path class="cls-3" d="M222.12,149.36l-64.6-64.6-1.28-1.27A55.38,55.38,0,0,0,144,74.61L126.86,57.49l.07-.08h-.16l-7.36-7.36h-11v7.36h-7.52l10,10q-3.27.15-6.43.6h0c-.51.07-1,.16-1.51.25-.35.06-.7.1-1,.17l-1.27.26L95.8,63.91a.28.28,0,0,1-.07-.09l-.4-.39a1.17,1.17,0,0,0-.15-.16L95,63.12l-.25-.24c-.17-.16-.35-.3-.53-.45s-.42-.38-.64-.55-.58-.44-.87-.64l-.58-.4c-.33-.22-.67-.41-1-.6-.17-.1-.34-.2-.52-.29-.37-.2-.75-.36-1.12-.52-.17-.07-.32-.15-.49-.21-.39-.16-.8-.3-1.2-.42l-.45-.16c-.42-.12-.84-.22-1.26-.31l-.45-.1c-.43-.08-.87-.14-1.31-.19-.14,0-.28,0-.41-.06-.58,0-1.16-.08-1.74-.08V75.51c-1.08.62-2.12,1.27-3.15,1.95l-.34.23c-1,.65-1.89,1.33-2.8,2-.16.11-.3.22-.45.34-.88.7-1.74,1.42-2.57,2.16l-.42.39c-.83.76-1.62,1.54-2.39,2.34-.11.11-.22.23-.32.35-.79.84-1.55,1.7-2.26,2.58l-.14.17a46,46,0,0,0-4,6,.67.67,0,0,1-.06.12c-.58,1-1.11,2.08-1.6,3.15a.93.93,0,0,0,0,.1h0c-.37.83-.73,1.67-1.05,2.52H51.08a4.64,4.64,0,0,0-4.62,4.62v18.72a4.55,4.55,0,0,0,1.36,3.26L82.2,160.9v1a4.61,4.61,0,0,0,.88,2.7l1,1.05,58.5,58.49A114.07,114.07,0,0,0,222.12,149.36Z"/><path class="cls-4" d="M169.79,113.89c0,25.73-25,46.59-55.9,46.59S58,139.62,58,113.89,83,67.3,113.89,67.3,169.79,88.16,169.79,113.89Z"/><path class="cls-4" d="M61.37,127.87H51.07a4.61,4.61,0,0,1-4.61-4.61V104.52a4.61,4.61,0,0,1,4.61-4.61h10.3Z"/><path class="cls-5" d="M87.33,102A2.33,2.33,0,0,1,85,99.68a2.8,2.8,0,0,0-5.59,0,2.33,2.33,0,0,1-4.66,0,7.46,7.46,0,0,1,14.91,0A2.33,2.33,0,0,1,87.33,102Z"/><path class="cls-4" d="M82.21,79.92h18.34V76.24A18.33,18.33,0,0,0,82.21,57.9h0Z"/><path class="cls-4" d="M177.25,113.89a4.9,4.9,0,0,0-4.89-4.9h-3.49v9.8h3.49a4.9,4.9,0,0,0,4.89-4.9Z"/><path class="cls-4" d="M100.55,151.35H82.21v10.53a4.63,4.63,0,0,0,4.61,4.62h9.12a4.63,4.63,0,0,0,4.61-4.62Z"/><path class="cls-4" d="M145.57,151.35H127.22v10.53a4.63,4.63,0,0,0,4.62,4.62H141a4.63,4.63,0,0,0,4.62-4.62Z"/><path class="cls-6" d="M97.61,80.32A2.33,2.33,0,0,1,97,75.76a61.1,61.1,0,0,1,33.86,0,2.33,2.33,0,0,1-1.31,4.47,56.43,56.43,0,0,0-31.24,0A2.44,2.44,0,0,1,97.61,80.32Z"/><polygon class="cls-5" points="119.41 57.41 119.41 50.05 108.37 50.05 108.37 57.41 100.85 57.41 113.89 70.46 126.93 57.41 119.41 57.41"/><path class="cls-6" d="M129.73,113.89A15.85,15.85,0,1,1,113.89,98,15.84,15.84,0,0,1,129.73,113.89Z"/><path class="cls-4" d="M115.56,115.36h-3.34a5.37,5.37,0,0,1,0-10.73h7.23v3h-7.23a2.37,2.37,0,0,0-1.72.71,2.43,2.43,0,0,0-.71,1.71,2.46,2.46,0,0,0,.72,1.72,2.4,2.4,0,0,0,1.71.7h3.34Z"/><path class="cls-4" d="M115.56,123.15h-7.23v-2.94h7.23a2.43,2.43,0,0,0,1.71-4.14,2.45,2.45,0,0,0-1.71-.71h-3.34v-2.94h3.34a5.37,5.37,0,0,1,0,10.73Z"/><rect class="cls-4" x="112.42" y="103.87" width="2.94" height="20.03"/></g></g></g></svg>